# xmcd
#
# Track frame offsets: 
#        150
#        18337
#        41114
#        56345
#        71201
#        89550
#        109371
#        127824
#        144942
#
# Disc length: 2199 seconds
#
# Revision: 0
# Processed by: cddbd v1.5.2PL0 Copyright (c) Steve Scherf et al.
# Submitted via: ExactAudioCopy v0.99pb5
#
DISCID=7c089509
DTITLE=Terakaft - Ténéré
DYEAR=2015
DGENRE=Blues
TTITLE0=Anabayou (Awkward)
TTITLE1=Tafouk Télé (The Sun Is There)
TTITLE2=Karambani (Nastiness)
TTITLE3=Itilla Ihene Dagh Aitma (To My Brothers)
TTITLE4=Oulhin Asnin (My Heart Suffers)
TTITLE5=Kal Hoggar (Kel Ahaggar)
TTITLE6=Amidinin Senta Aneflas (My Confidant)
TTITLE7=Wahouche Natareh (Lions)
TTITLE8=Anabayou (Solo)
EXTD=
EXTT0=
EXTT1=
EXTT2=
EXTT3=
EXTT4=
EXTT5=
EXTT6=
EXTT7=
EXTT8=
PLAYORDER=
